<?xml version="1.0" encoding="UTF-8"?>
<svg version="1.1" xmlns="http://www.w3.org/2000/svg" width="288" height="254">
<path d="M0 0 C95.04 0 190.08 0 288 0 C288 83.82 288 167.64 288 254 C192.96 254 97.92 254 0 254 C0 170.18 0 86.36 0 0 Z " fill="#4F1643" transform="translate(0,0)"/>
<path d="M0 0 C0 16.83 0 33.66 0 51 C-95.04 51 -190.08 51 -288 51 C-288 34.5 -288 18 -288 1 C-286.02 1.66 -284.04 2.32 -282 3 C-279.49231431 3.29344985 -279.49231431 3.29344985 -276.9652853 3.25447559 C-275.50986534 3.26322388 -275.50986534 3.26322388 -274.02504295 3.27214891 C-272.44552183 3.26647992 -272.44552183 3.26647992 -270.83409119 3.26069641 C-269.70543202 3.26452196 -268.57677284 3.26834751 -267.41391188 3.27228898 C-263.62997924 3.28261219 -259.84619852 3.27862808 -256.06225586 3.2746582 C-253.35030173 3.27791146 -250.63835606 3.28412347 -247.92640686 3.29014587 C-241.3241299 3.3028893 -234.72189362 3.3046871 -228.11960643 3.30234561 C-222.75413143 3.30056229 -217.38866878 3.30231239 -212.02319527 3.30657005 C-211.25945212 3.30716524 -210.49570897 3.30776043 -209.70882209 3.30837366 C-208.15728795 3.3095854 -206.60575381 3.31079954 -205.05421967 3.31201603 C-190.50784396 3.3228897 -175.96149143 3.3207296 -161.41511441 3.31463119 C-148.10426652 3.30945931 -134.79349175 3.32072491 -121.48265832 3.33972941 C-107.81493731 3.35909393 -94.14725091 3.36736643 -80.47951609 3.36360615 C-72.80609738 3.36169237 -65.13274095 3.36419912 -57.45933342 3.37832069 C-50.92871096 3.39021765 -44.39818913 3.39165821 -37.86756533 3.37953053 C-34.53523296 3.37363052 -31.2032362 3.3741922 -27.87089157 3.38453293 C-24.26006358 3.39493213 -20.64973477 3.38695433 -17.03892517 3.3742218 C-15.98368037 3.38159609 -14.92843556 3.38897037 -13.84121364 3.39656812 C-8.82385171 3.35920233 -4.01431963 0 0 0 Z " fill="#6B181F" transform="translate(288,203)"/>
<path d="M0 0 C95.04 0 190.08 0 288 0 C288.0928125 50.1496875 288.0928125 50.1496875 288.1875 101.3125 C288.21481201 111.88321533 288.24212402 122.45393066 288.27026367 133.3449707 C288.28381348 146.21716309 288.28381348 146.21716309 288.28633118 152.23625183 C288.28913497 156.45533444 288.3004123 160.67430471 288.31672668 164.89335632 C288.33723495 170.26780369 288.34348635 175.64208662 288.33921683 181.0165695 C288.3401102 182.99350318 288.34609979 184.97044235 288.35764539 186.94734251 C288.37247504 189.60929644 288.36900458 192.27060395 288.36076355 194.93257141 C288.37387054 196.10392277 288.37387054 196.10392277 288.38724232 197.2989378 C288.3436932 202.50012724 288.3436932 202.50012724 286.66495228 204.94171429 C283.57016888 206.90883676 280.89919092 207.12610424 277.3372221 207.13142776 C275.8916869 207.13718948 275.8916869 207.13718948 274.41694897 207.1430676 C272.82534324 207.14176787 272.82534324 207.14176787 271.20158386 207.14044189 C269.51349837 207.14489858 269.51349837 207.14489858 267.79131013 207.1494453 C264.00043305 207.15815342 260.20958748 207.15964233 256.41870117 207.16113281 C253.70881462 207.16522058 250.99893142 207.17076315 248.28904724 207.17617798 C240.91302585 207.18976466 233.5370099 207.19578651 226.16097808 207.20018864 C221.55623938 207.20295043 216.95150279 207.20718766 212.34676552 207.21169281 C199.60007325 207.22388579 186.85338266 207.23418513 174.10668468 207.2375679 C172.88276573 207.23789725 172.88276573 207.23789725 171.63412114 207.23823325 C170.81621255 207.23845153 169.99830396 207.23866981 169.15561026 207.2388947 C167.49819004 207.23933817 165.84076983 207.23978473 164.18334961 207.24023438 C163.3612103 207.2404558 162.53907099 207.24067723 161.69201837 207.24090537 C148.36872619 207.24485387 135.04548869 207.26230931 121.72221764 207.2855939 C108.04668144 207.30930142 94.37117268 207.32176947 80.69561559 207.32293582 C73.01596653 207.32385291 65.33638871 207.32961364 57.65675926 207.34775543 C51.11768208 207.36314832 44.57869815 207.3682817 38.0396063 207.36001733 C34.70311534 207.35610789 31.36696511 207.35868304 28.0304718 207.37107468 C24.41327399 207.38372286 20.79656105 207.37795577 17.17936707 207.36749268 C16.12498874 207.37554908 15.07061042 207.38360548 13.98428124 207.39190602 C13.01276787 207.38531618 12.0412545 207.37872633 11.04030132 207.3719368 C9.7885244 207.37283243 9.7885244 207.37283243 8.51145905 207.37374616 C6 207 6 207 0 204 C0 136.68 0 69.36 0 0 Z M3 7 C2.61536919 9.64245314 2.47555608 11.86549141 2.51898193 14.5043335 C2.51384583 15.6399044 2.51384583 15.6399044 2.50860596 16.79841614 C2.50198152 19.34483421 2.52408198 21.89020145 2.54589844 24.43652344 C2.54712365 26.28928723 2.54659002 28.14205288 2.54443741 29.99481583 C2.54353356 34.96100702 2.5667334 39.92681348 2.59487915 44.89291382 C2.61764214 49.55118028 2.61873068 54.2093527 2.62158203 58.86767578 C2.64257971 72.49516824 2.69842424 86.12258896 2.75 99.75 C2.8325 130.1925 2.915 160.635 3 192 C96.06 192 189.12 192 285 192 C285.0825 161.5575 285.165 131.115 285.25 99.75 C285.28641602 90.12811523 285.32283203 80.50623047 285.36035156 70.59277344 C285.37372706 61.98807049 285.37372706 61.98807049 285.3817749 53.38336182 C285.38551033 49.54261077 285.40053484 45.70207958 285.42230225 41.86138916 C285.44967756 36.96661271 285.45797613 32.07215733 285.4522891 27.17731142 C285.4534788 25.37825492 285.46144707 23.57918753 285.47686052 21.78019667 C285.49668271 19.35449931 285.49198945 16.93005816 285.48101807 14.5043335 C285.49266872 13.7963625 285.50431938 13.08839149 285.51632309 12.35896683 C285.47555769 9.01830475 285.19954367 7.26641186 283.17321014 4.56104279 C280.03308703 2.30545487 277.68350062 2.51942413 273.84472656 2.54589844 C273.13213181 2.54531433 272.41953705 2.54473022 271.68534851 2.54412842 C269.3366069 2.54690891 266.9891441 2.57799677 264.640625 2.609375 C263.00967095 2.61683757 261.37870793 2.62253043 259.7477417 2.62652588 C255.46001323 2.64178108 251.17282881 2.68106146 246.88531494 2.7253418 C242.50825357 2.76629723 238.13110409 2.78453745 233.75390625 2.8046875 C225.16902148 2.84755623 216.58457846 2.91580565 208 3 C208 3.33 208 3.66 208 4 C197.96161652 5.10347094 188.01725498 5.0872796 177.9375 5 C174.80078504 4.97338276 171.66412887 4.95346145 168.52734375 4.9375 C167.81488998 4.92920166 167.10243622 4.92090332 166.36839294 4.91235352 C163.28912428 4.8969833 160.94713695 5.01762102 158 6 C157.67 5.67 157.34 5.34 157 5 C155.02566384 4.84166905 153.04600781 4.74878292 151.06640625 4.68359375 C149.86048828 4.64169922 148.65457031 4.59980469 147.41210938 4.55664062 C145.50655273 4.49766602 145.50655273 4.49766602 143.5625 4.4375 C142.29599609 4.39431641 141.02949219 4.35113281 139.72460938 4.30664062 C133.86359661 4.0876116 133.86359661 4.0876116 128 4 C128 3.67 128 3.34 128 3 C112.29268659 2.9065749 96.58544813 2.83602988 80.87792587 2.79275131 C73.58470118 2.77212252 66.29164908 2.74399615 58.99853516 2.69824219 C52.64213612 2.65838378 46.28586208 2.63256948 39.92934155 2.62364602 C36.56327928 2.61842947 33.1975746 2.60616291 29.83162689 2.57707977 C26.07470783 2.54814746 22.31853553 2.5440399 18.56152344 2.54589844 C17.44446518 2.53151733 16.32740692 2.51713623 15.17649841 2.50231934 C14.15288712 2.50781799 13.12927582 2.51331665 12.074646 2.51898193 C10.74173334 2.51345118 10.74173334 2.51345118 9.38189316 2.50780869 C6.05600445 3.19506602 4.94831848 4.22583324 3 7 Z " fill="#A61253" transform="translate(0,0)"/>
<path d="M0 0 C0 16.83 0 33.66 0 51 C-19.14 51 -38.28 51 -58 51 C-58 47.04 -58 43.08 -58 39 C-59.87389101 35.38929094 -60.99631093 34.39143785 -64.7487793 32.92797852 C-65.78429932 32.72615967 -66.81981934 32.52434082 -67.88671875 32.31640625 C-69.04091309 32.08711426 -70.19510742 31.85782227 -71.38427734 31.62158203 C-77.18232614 30.62483441 -82.98264506 29.72748934 -88.8125 28.9375 C-90.03791504 28.76758545 -91.26333008 28.5976709 -92.52587891 28.42260742 C-96.0163479 27.94142629 -99.50789353 27.46912827 -103 27 C-104.29381592 26.82355957 -104.29381592 26.82355957 -105.61376953 26.64355469 C-113.77365328 25.53540061 -121.87333406 24.7382868 -130.109375 24.44140625 C-133.48990119 23.92519076 -134.67910492 23.50956817 -137 21 C-137.29561076 18.12961948 -137.37943016 15.66245255 -137.25 12.8125 C-137.23195312 12.06291016 -137.21390625 11.31332031 -137.1953125 10.54101562 C-137.14824109 8.6934629 -137.07649766 6.84656841 -137 5 C-136.33554556 4.99853344 -135.67109112 4.99706688 -134.98650169 4.99555588 C-118.81125728 4.95848781 -102.6362565 4.8994733 -86.46118736 4.81609726 C-78.63899776 4.77630502 -70.81690878 4.74391352 -62.99462891 4.72900391 C-56.17590895 4.71598828 -49.3574104 4.68902612 -42.53881514 4.64538693 C-38.92909488 4.62276981 -35.31964771 4.60708945 -31.70985031 4.60811615 C-27.67783589 4.60900143 -23.64662684 4.57874755 -19.61474609 4.54589844 C-18.42072174 4.5509288 -17.22669739 4.55595917 -15.99649048 4.56114197 C-10.1783339 4.48769328 -4.32307525 0 0 0 Z " fill="#000000" transform="translate(288,203)"/>
<path d="M0 0 C1.98 0.66 3.96 1.32 6 2 C6 2.66 6 3.32 6 4 C47.25 4 88.5 4 131 4 C131 9.28 131 14.56 131 20 C126.94758808 23.03930894 125.9962654 23.41369905 121.25 23.80859375 C120.09757812 23.91365234 118.94515625 24.01871094 117.7578125 24.12695312 C116.51773438 24.22943359 115.27765625 24.33191406 114 24.4375 C111.37447714 24.68182683 108.74956387 24.92947374 106.125 25.18359375 C105.4539624 25.24783539 104.7829248 25.31207703 104.09155273 25.37826538 C97.03560077 26.06759027 90.01836009 27.00003643 83 28 C81.88753906 28.1539624 80.77507812 28.3079248 79.62890625 28.46655273 C66.07830235 30.02002983 66.07830235 30.02002983 53.75 35.125 C51.40406196 38.97904106 50.88243465 42.51572146 51 47 C51.33 47.99 51.66 48.98 52 50 C34.84 50 17.68 50 0 50 C0 33.5 0 17 0 0 Z " fill="#000000" transform="translate(0,204)"/>
<path d="M0 0 C51.60638298 0 51.60638298 0 72 2 C72 2.33 72 2.66 72 3 C71.19233688 3.00586624 70.38467377 3.01173248 69.55253601 3.01777649 C61.94501422 3.07565468 54.33782177 3.14770272 46.73059368 3.23571491 C42.81952152 3.28046315 38.90855459 3.31970911 34.99731445 3.34643555 C31.22347912 3.37242461 27.45004781 3.4127949 23.67646217 3.46318626 C22.23600091 3.47988494 20.79546972 3.49138053 19.35492516 3.49761391 C17.33896226 3.50722148 15.32312559 3.53696102 13.30737305 3.56762695 C12.15931686 3.57873001 11.01126068 3.58983307 9.82841492 3.60127258 C7.0760679 3.7880124 7.0760679 3.7880124 5.34814453 5.06341553 C3.31092774 7.98983945 3.57781979 10.9438075 3.60127258 14.38407898 C3.59462576 15.14209944 3.58797893 15.9001199 3.58113068 16.68111068 C3.56243463 19.22854182 3.56511035 21.775506 3.56762695 24.32299805 C3.55861381 26.14608426 3.5482877 27.96916439 3.53674316 29.79223633 C3.50909442 34.74852805 3.49987798 39.70470504 3.49388909 44.66106391 C3.48452587 49.8381201 3.45832421 55.01508989 3.43388367 60.1920929 C3.39015838 69.99865726 3.36164848 79.80520492 3.33856028 89.61183721 C3.30649117 102.86129132 3.25100908 116.11064582 3.19681454 129.36002445 C3.11202754 150.23998677 3.05860085 171.11990976 3 192 C50.52 192 98.04 192 147 192 C147 192.33 147 192.66 147 193 C144.36 193.33 141.72 193.66 139 194 C139.62648437 194.12117187 140.25296875 194.24234375 140.8984375 194.3671875 C142.12433594 194.61855469 142.12433594 194.61855469 143.375 194.875 C144.59316406 195.11863281 144.59316406 195.11863281 145.8359375 195.3671875 C148 196 148 196 150 198 C149.9375 200 149.9375 200 149 202 C146.4375 203.25 146.4375 203.25 144 204 C144.33 204.66 144.66 205.32 145 206 C144.28972656 205.98839844 143.57945312 205.97679687 142.84765625 205.96484375 C141.92855469 205.95582031 141.00945312 205.94679687 140.0625 205.9375 C138.68771484 205.92009766 138.68771484 205.92009766 137.28515625 205.90234375 C135.03406673 205.74050951 135.03406673 205.74050951 134 207 C132.35611641 207.10262232 130.70782058 207.13520292 129.06074524 207.14044189 C127.99102982 207.14615204 126.92131439 207.15186218 125.81918335 207.15774536 C124.63531036 207.15886322 123.45143738 207.15998108 122.23168945 207.16113281 C120.99272415 207.16609772 119.75375885 207.17106262 118.47724915 207.17617798 C115.06790756 207.18831396 111.65862754 207.19575248 108.24927163 207.20018864 C106.11933071 207.20311668 103.98939521 207.20722109 101.85945702 207.21169281 C95.19592733 207.22537764 88.53240999 207.23503812 81.86886722 207.2388947 C74.17654082 207.24337091 66.48439252 207.2608942 58.79212028 207.2898953 C52.84810279 207.31152668 46.90413532 207.32159984 40.9600789 207.32293582 C37.40961412 207.32398328 33.85931653 207.32987776 30.3088932 207.34775543 C26.34429846 207.3673284 22.37992509 207.36294129 18.4152832 207.35644531 C17.24153137 207.3656601 16.06777954 207.37487488 14.85845947 207.3843689 C13.77464493 207.37879974 12.69083038 207.37323059 11.57417297 207.36749268 C10.16854331 207.36969252 10.16854331 207.36969252 8.7345171 207.3719368 C6 207 6 207 0 204 C0 136.68 0 69.36 0 0 Z " fill="#7C2788" transform="translate(0,0)"/>
<path d="M0 0 C90.75 0 181.5 0 275 0 C275 0.33 275 0.66 275 1 C232.1 1 189.2 1 145 1 C145.33 6.28 145.66 11.56 146 17 C149.05436143 19.03624095 150.15483554 19.31953947 153.66796875 19.6328125 C154.56064453 19.71660156 155.45332031 19.80039063 156.37304688 19.88671875 C157.76620117 20.00466797 157.76620117 20.00466797 159.1875 20.125 C160.12787109 20.21136719 161.06824219 20.29773438 162.03710938 20.38671875 C164.35749837 20.59873399 166.67830819 20.80285429 169 21 C169 21.33 169 21.66 169 22 C160.585 22.495 160.585 22.495 152 23 C152 23.66 152 24.32 152 25 C144.01353599 25.10776338 136.17674906 24.97135624 128.23046875 24.12109375 C124.83426295 23.99378737 121.70030762 24.321377 118.33666992 24.73950195 C114.58691994 25.15753384 110.83108011 25.24061713 107.0625 25.375 C95.63907041 25.85723247 84.3426052 27.2486445 73.00317383 28.66210938 C70.01698223 28.99808931 67.03609843 29.22276302 64.0390625 29.4375 C60.14082515 29.77791441 57.2870577 30.3462657 53.9375 32.5 C53.22464844 32.9434375 52.51179688 33.386875 51.77734375 33.84375 C51.19082031 34.2253125 50.60429688 34.606875 50 35 C49.01 35.495 49.01 35.495 48 36 C47.979375 37.299375 47.95875 38.59875 47.9375 39.9375 C47.92589844 40.66839844 47.91429687 41.39929688 47.90234375 42.15234375 C47.79438816 44.01732141 47.79438816 44.01732141 49 45 C51.24024643 45.09704641 53.48362054 45.12186656 55.72596741 45.12025452 C56.43735994 45.12110894 57.14875248 45.12196337 57.88170236 45.12284368 C60.28322048 45.12450057 62.68466988 45.11897374 65.08618164 45.11352539 C66.80059304 45.11324354 68.51500456 45.11340122 70.22941589 45.1139679 C74.89863973 45.11425594 79.56783812 45.10835804 84.23705602 45.10139394 C89.11111527 45.09516161 93.98517505 45.0945567 98.85923767 45.09336853 C108.0956943 45.09025486 117.33213915 45.08204098 126.56859058 45.07201904 C137.08110865 45.06085902 147.59362728 45.05534774 158.10614979 45.05032361 C179.73743978 45.0398584 201.36871915 45.02225826 223 45 C222.88721289 43.39763216 222.76090523 41.79621221 222.62890625 40.1953125 C222.56002197 39.30344238 222.4911377 38.41157227 222.42016602 37.49267578 C221.85811874 34.15827562 220.39987429 32.32245899 218 30 C221 30 221 30 223.1875 31.8125 C225.80454247 36.41488504 225.53155477 40.80644851 225 46 C223.09128169 47.90871831 219.66186933 47.1347016 217.13563538 47.14044189 C216.40931976 47.14341302 215.68300415 47.14638414 214.93467897 47.1494453 C212.48256427 47.15816915 210.03049817 47.15964363 207.57836914 47.16113281 C205.82779332 47.16575834 204.07721851 47.17078263 202.3266449 47.17617798 C197.55812725 47.18932851 192.7896237 47.19575194 188.02109075 47.20018864 C185.04559274 47.20311474 182.07009864 47.20721862 179.09460258 47.21169281 C169.79557311 47.22537394 160.49655249 47.23503791 151.19751364 47.2388947 C140.44318189 47.24337891 129.68897702 47.26094105 118.93468386 47.2898953 C110.63491078 47.31146979 102.33517351 47.32159669 94.03537267 47.32293582 C89.07212197 47.32398678 84.10899044 47.32995612 79.14576912 47.34775543 C74.47957532 47.36416345 69.81359119 47.36642727 65.14737892 47.35761642 C63.43083894 47.35684216 61.71428801 47.36123957 59.99777603 47.37107468 C57.66204592 47.38367718 55.32707169 47.37798225 52.99134827 47.36749268 C51.68185746 47.36895924 50.37236666 47.3704258 49.02319431 47.3719368 C47.52671313 47.18782808 47.52671313 47.18782808 46 47 C43.49188886 43.23783328 43.84600773 41.53454707 44.4765625 37.21875 C45.2757335 33.83121921 46.34154176 32.25968951 49 30 C55.85605604 26.92489896 63.24741974 26.01104097 70.625 25 C71.80271973 24.83266357 72.98043945 24.66532715 74.19384766 24.49291992 C77.79458255 23.9851984 81.39693962 23.49091946 85 23 C86.08474609 22.84998535 87.16949219 22.6999707 88.28710938 22.54541016 C108.51814516 19.75655242 108.51814516 19.75655242 118.671875 19.30859375 C121.27003807 19.1381556 121.27003807 19.1381556 124 17 C124.33 11.72 124.66 6.44 125 1 C83.75 1 42.5 1 0 1 C0 0.67 0 0.34 0 0 Z " fill="#64131F" transform="translate(6,207)"/>
<path d="M0 0 C1.18190918 0.01160156 1.18190918 0.01160156 2.38769531 0.0234375 C3.64984863 0.06791016 3.64984863 0.06791016 4.9375 0.11328125 C6.24219238 0.13648438 6.24219238 0.13648438 7.57324219 0.16015625 C17.03512109 0.36371048 26.49104601 0.86301378 35.9375 1.42578125 C35.9375 1.75578125 35.9375 2.08578125 35.9375 2.42578125 C34.89819336 2.41530762 33.85888672 2.40483398 32.78808594 2.39404297 C28.92663019 2.35780189 25.06518943 2.33486584 21.20361328 2.31591797 C19.53334015 2.30586975 17.86308458 2.29222889 16.19287109 2.27490234 C13.78999496 2.25060199 11.38735173 2.23928638 8.984375 2.23046875 C8.23943787 2.22014618 7.49450073 2.20982361 6.72698975 2.19918823 C1.44181853 2.0919444 1.44181853 2.0919444 -3.0625 4.42578125 C-5.71315481 10.22643168 -5.51535059 16.32009443 -5.68139648 22.57910156 C-5.719066 23.80542927 -5.75673552 25.03175697 -5.79554653 26.29524612 C-6.21335101 41.41345636 -6.1914022 56.53441837 -6.16378021 71.65713501 C-6.1579552 75.37900867 -6.15781022 79.10087564 -6.15710449 82.82275391 C-6.15191998 93.60710042 -6.13795919 104.39144128 -6.125 115.17578125 C-6.104375 139.34828125 -6.08375 163.52078125 -6.0625 188.42578125 C85.6775 188.42578125 177.4175 188.42578125 271.9375 188.42578125 C271.4425 150.31078125 271.4425 150.31078125 270.9375 111.42578125 C270.94298841 90.23503684 270.96543107 69.0459837 271.10888672 47.85595703 C271.1463261 42.21699974 271.16943896 36.57813795 271.18319321 30.93907547 C271.19118962 28.84262858 271.20471503 26.74619452 271.22412491 24.64982224 C271.25036199 21.79685232 271.25846682 18.94438327 271.26220703 16.09130859 C271.28074234 14.83022781 271.28074234 14.83022781 271.2996521 13.54367065 C271.40251601 9.31346475 271.40251601 9.31346475 269.5442791 5.67713356 C268.00321015 4.18296583 268.00321015 4.18296583 265.875 4.61328125 C263.75037474 5.36048461 263.75037474 5.36048461 261.9375 7.42578125 C261.6075 6.10578125 261.2775 4.78578125 260.9375 3.42578125 C258.98070312 3.44318359 258.98070312 3.44318359 256.984375 3.4609375 C247.57524279 3.51855178 238.2980521 3.49120994 228.9375 2.42578125 C228.9375 2.09578125 228.9375 1.76578125 228.9375 1.42578125 C236.43957984 0.38858165 243.85382303 0.17094184 251.42041016 0.13061523 C252.93905893 0.11900377 254.45766409 0.09841036 255.97607422 0.0690918 C258.18745196 0.02651956 260.39763914 0.01027419 262.609375 0 C263.9200293 -0.01458252 265.23068359 -0.02916504 266.58105469 -0.04418945 C269.9375 0.42578125 269.9375 0.42578125 272.1172142 1.98613358 C274.55292972 5.25061418 274.4829486 8.01488966 274.41851807 11.93011475 C274.42194214 12.68716202 274.42536621 13.44420929 274.42889404 14.22419739 C274.43551848 16.77061546 274.41341802 19.3159827 274.39160156 21.86230469 C274.39037635 23.71506848 274.39090998 25.56783413 274.39306259 27.42059708 C274.39396644 32.38678827 274.3707666 37.35259473 274.34262085 42.31869507 C274.31985786 46.97696153 274.31876932 51.63513395 274.31591797 56.29345703 C274.29492029 69.92094949 274.23907576 83.54837021 274.1875 97.17578125 C274.105 127.61828125 274.0225 158.06078125 273.9375 189.42578125 C180.8775 189.42578125 87.8175 189.42578125 -8.0625 189.42578125 C-8.145 158.98328125 -8.2275 128.54078125 -8.3125 97.17578125 C-8.34891602 87.55389648 -8.38533203 77.93201172 -8.42285156 68.01855469 C-8.44091797 56.29345703 -8.44091797 56.29345703 -8.4442749 50.80914307 C-8.44801033 46.96839202 -8.46303484 43.12786083 -8.48480225 39.28717041 C-8.51217756 34.39239396 -8.52047613 29.49793858 -8.5147891 24.60309267 C-8.5159788 22.80403617 -8.52394707 21.00496878 -8.53936052 19.20597792 C-8.55918271 16.78028056 -8.55448945 14.35583941 -8.54351807 11.93011475 C-8.55516872 11.22214375 -8.56681938 10.51417274 -8.57882309 9.78474808 C-8.53737295 6.38797298 -8.2753566 4.69812369 -6.15572739 1.98613358 C-3.83038712 0.25275759 -2.85647952 -0.06039986 0 0 Z " fill="#320520" transform="translate(11.0625,2.57421875)"/>
<path d="M0 0 C30.28574782 -0.02279429 60.57149521 -0.04050021 90.85724967 -0.05106533 C94.42973547 -0.05231609 98.00222126 -0.05361041 101.57470703 -0.05493164 C102.28594873 -0.05519395 102.99719042 -0.05545626 103.72998489 -0.05572652 C115.25845307 -0.06008225 126.78691628 -0.06796927 138.31538151 -0.0771528 C150.13758059 -0.08649203 161.95977706 -0.09205618 173.78197968 -0.09408849 C180.4252941 -0.09533956 187.06859926 -0.09848107 193.71191025 -0.10573006 C199.95802475 -0.11249076 206.20412327 -0.11461685 212.45024109 -0.11310768 C214.74890861 -0.11338399 217.04757663 -0.11538881 219.346241 -0.11920547 C222.47221085 -0.12414347 225.59811946 -0.12299786 228.72409058 -0.12025452 C229.64431059 -0.12316736 230.5645306 -0.1260802 231.51263607 -0.12908131 C237.77175758 -0.11412121 237.77175758 -0.11412121 240 1 C240.72693904 2.97888961 241.39816251 4.97954558 242 7 C241.34 7 240.68 7 240 7 C239.60330612 6.51202438 239.20661224 6.02404877 238.79789734 5.52128601 C236.06310853 3.2072518 233.76708776 3.64039271 230.23364258 3.65942383 C229.55045456 3.65898575 228.86726654 3.65854767 228.16337585 3.65809631 C225.90680288 3.66018518 223.65097431 3.68351963 221.39453125 3.70703125 C219.82940578 3.71262689 218.26427506 3.71689714 216.69914246 3.71989441 C212.58083576 3.73134581 208.46284675 3.7608153 204.34466553 3.79400635 C200.14193011 3.82470099 195.93914334 3.83839844 191.73632812 3.85351562 C183.49073967 3.88568493 175.24540936 3.9368846 167 4 C167 4.33 167 4.66 167 5 C155.91086653 5.91820198 144.93327945 6.09821738 133.8125 6 C130.71484764 5.97332074 127.61725522 5.95344546 124.51953125 5.9375 C123.82164993 5.92920166 123.12376862 5.92090332 122.40473938 5.91235352 C119.11671907 5.89569567 116.14342843 5.98078082 113 7 C113 6.34 113 5.68 113 5 C108.58334712 4.97097832 104.16671877 4.95319392 99.75 4.9375 C98.49574219 4.92912109 97.24148437 4.92074219 95.94921875 4.91210938 C94.74394531 4.90888672 93.53867188 4.90566406 92.296875 4.90234375 C91.18666992 4.89710693 90.07646484 4.89187012 88.93261719 4.88647461 C86.07908306 4.88408367 86.07908306 4.88408367 83.73144531 5.63110352 C83.16006836 5.75283936 82.58869141 5.8745752 82 6 C81.01 5.01 81.01 5.01 80 4 C77.89623984 3.6832736 77.89623984 3.6832736 75.44384766 3.71289062 C74.49242889 3.69940079 73.54101013 3.68591095 72.5607605 3.67201233 C71.52235016 3.66681076 70.48393982 3.66160919 69.4140625 3.65625 C68.33689972 3.64230698 67.25973694 3.62836395 66.14993286 3.61399841 C63.83921834 3.58415057 61.52845023 3.55824404 59.21765137 3.53585815 C39.41203843 3.33817888 19.72573004 2.8958557 0 1 C0 0.67 0 0.34 0 0 Z " fill="#AD1142" transform="translate(44,0)"/>
<path d="M0 0 C1.93743581 0.10406651 3.87493484 0.20696397 5.8125 0.30859375 C6.71484375 0.35741699 7.6171875 0.40624023 8.546875 0.45654297 C10.55038654 0.54307999 12.55717952 0.55054796 14.5625 0.53515625 C17 0.5625 17 0.5625 19 1.5625 C18.67 2.8825 18.34 4.2025 18 5.5625 C16.42025391 5.54509766 16.42025391 5.54509766 14.80859375 5.52734375 C5.19376352 5.45447015 -4.43360524 5.47418824 -14 6.5625 C-14.33 6.8925 -14.66 7.2225 -15 7.5625 C-17.21966083 7.83964976 -19.44702707 8.05540812 -21.67578125 8.24609375 C-22.35617966 8.30652359 -23.03657806 8.36695343 -23.7375946 8.42921448 C-26.65042044 8.68780685 -29.56409801 8.93612129 -32.4777832 9.18481445 C-41.39662879 9.95254087 -50.18340254 10.97556004 -59 12.5625 C-60.72832465 12.83993276 -62.45747584 13.11227646 -64.1875 13.37890625 C-64.98800781 13.50330078 -65.78851563 13.62769531 -66.61328125 13.75585938 C-68.23553731 14.00676477 -69.85793888 14.25673077 -71.48046875 14.50585938 C-72.27066406 14.62896484 -73.06085938 14.75207031 -73.875 14.87890625 C-74.57367188 14.98662354 -75.27234375 15.09434082 -75.9921875 15.20532227 C-78.03346968 15.52166915 -78.03346968 15.52166915 -80.0703125 16.23022461 C-82 16.5625 -82 16.5625 -85 14.5625 C-84.9375 12.3125 -84.9375 12.3125 -84 9.5625 C-78.1896845 5.30371289 -73.00259401 4.82557122 -65.9375 4.4375 C-63.86306275 4.29347794 -61.78883824 4.1463572 -59.71484375 3.99609375 C-58.22573486 3.89143799 -58.22573486 3.89143799 -56.70654297 3.78466797 C-53.43911335 3.51645933 -50.23255055 3.0420556 -47 2.5 C-39.69569717 1.35422701 -32.37170995 1.13945471 -24.9921875 0.90405273 C-19.46837113 0.73363763 -19.46837113 0.73363763 -14 0.0078125 C-9.31984745 -0.68689764 -4.71032967 -0.27174979 0 0 Z " fill="#7F1839" transform="translate(142,230.4375)"/>
<path d="M0 0 C41.58 0 83.16 0 126 0 C127.63510979 3.27021959 127.22628299 6.84733751 127.25 10.4375 C127.270625 11.21416016 127.29125 11.99082031 127.3125 12.79101562 C127.35198652 18.52149705 127.35198652 18.52149705 125.73730469 20.71655273 C123.63309395 22.27105468 122.47124111 22.40502629 119.875 22.4765625 C119.08609375 22.5075 118.2971875 22.5384375 117.484375 22.5703125 C116.66453125 22.58835938 115.8446875 22.60640625 115 22.625 C113.37488337 22.6761043 111.74987044 22.73065212 110.125 22.7890625 C109.40570313 22.80662598 108.68640625 22.82418945 107.9453125 22.84228516 C105.78326751 22.93972679 105.78326751 22.93972679 103 24 C99.64642911 24.26914008 96.29325402 24.44505804 92.93359375 24.62109375 C89.88107831 24.7117863 89.88107831 24.7117863 88 27 C85.17083343 27.4513686 82.40949323 27.79506476 79.5625 28.0625 C78.3405896 28.19144653 78.3405896 28.19144653 77.09399414 28.32299805 C72.70832907 28.77761763 68.34116814 29.08667086 63.9375 29.3125 C58.46558895 29.76004828 54.53373651 32.0505802 50 35 C49.01 35.495 49.01 35.495 48 36 C47.979375 37.299375 47.95875 38.59875 47.9375 39.9375 C47.92589844 40.66839844 47.91429687 41.39929688 47.90234375 42.15234375 C47.79438816 44.01732141 47.79438816 44.01732141 49 45 C51.24024643 45.09704641 53.48362054 45.12186656 55.72596741 45.12025452 C56.43735994 45.12110894 57.14875248 45.12196337 57.88170236 45.12284368 C60.28322048 45.12450057 62.68466988 45.11897374 65.08618164 45.11352539 C66.80059304 45.11324354 68.51500456 45.11340122 70.22941589 45.1139679 C74.89863973 45.11425594 79.56783812 45.10835804 84.23705602 45.10139394 C89.11111527 45.09516161 93.98517505 45.0945567 98.85923767 45.09336853 C108.0956943 45.09025486 117.33213915 45.08204098 126.56859058 45.07201904 C137.08110865 45.06085902 147.59362728 45.05534774 158.10614979 45.05032361 C179.73743978 45.0398584 201.36871915 45.02225826 223 45 C222.88721289 43.39763216 222.76090523 41.79621221 222.62890625 40.1953125 C222.56002197 39.30344238 222.4911377 38.41157227 222.42016602 37.49267578 C221.85811874 34.15827562 220.39987429 32.32245899 218 30 C221 30 221 30 223.1875 31.8125 C225.80454247 36.41488504 225.53155477 40.80644851 225 46 C223.09128169 47.90871831 219.66186933 47.1347016 217.13563538 47.14044189 C216.40931976 47.14341302 215.68300415 47.14638414 214.93467897 47.1494453 C212.48256427 47.15816915 210.03049817 47.15964363 207.57836914 47.16113281 C205.82779332 47.16575834 204.07721851 47.17078263 202.3266449 47.17617798 C197.55812725 47.18932851 192.7896237 47.19575194 188.02109075 47.20018864 C185.04559274 47.20311474 182.07009864 47.20721862 179.09460258 47.21169281 C169.79557311 47.22537394 160.49655249 47.23503791 151.19751364 47.2388947 C140.44318189 47.24337891 129.68897702 47.26094105 118.93468386 47.2898953 C110.63491078 47.31146979 102.33517351 47.32159669 94.03537267 47.32293582 C89.07212197 47.32398678 84.10899044 47.32995612 79.14576912 47.34775543 C74.47957532 47.36416345 69.81359119 47.36642727 65.14737892 47.35761642 C63.43083894 47.35684216 61.71428801 47.36123957 59.99777603 47.37107468 C57.66204592 47.38367718 55.32707169 47.37798225 52.99134827 47.36749268 C51.68185746 47.36895924 50.37236666 47.3704258 49.02319431 47.3719368 C47.52671313 47.18782808 47.52671313 47.18782808 46 47 C43.49188886 43.23783328 43.84600773 41.53454707 44.4765625 37.21875 C45.2757335 33.83121921 46.34154176 32.25968951 49 30 C55.85605604 26.92489896 63.24741974 26.01104097 70.625 25 C71.80271973 24.83266357 72.98043945 24.66532715 74.19384766 24.49291992 C77.79458255 23.9851984 81.39693962 23.49091946 85 23 C86.08474609 22.84998535 87.16949219 22.6999707 88.28710938 22.54541016 C108.51814516 19.75655242 108.51814516 19.75655242 118.671875 19.30859375 C121.27003807 19.1381556 121.27003807 19.1381556 124 17 C124.33 11.72 124.66 6.44 125 1 C83.75 1 42.5 1 0 1 C0 0.67 0 0.34 0 0 Z " fill="#470E23" transform="translate(6,207)"/>
<path d="M0 0 C1.18190918 0.01160156 1.18190918 0.01160156 2.38769531 0.0234375 C3.64984863 0.06791016 3.64984863 0.06791016 4.9375 0.11328125 C6.24219238 0.13648438 6.24219238 0.13648438 7.57324219 0.16015625 C17.03512109 0.36371048 26.49104601 0.86301378 35.9375 1.42578125 C35.9375 1.75578125 35.9375 2.08578125 35.9375 2.42578125 C34.89819336 2.41530762 33.85888672 2.40483398 32.78808594 2.39404297 C28.92663019 2.35780189 25.06518943 2.33486584 21.20361328 2.31591797 C19.53334015 2.30586975 17.86308458 2.29222889 16.19287109 2.27490234 C13.78999496 2.25060199 11.38735173 2.23928638 8.984375 2.23046875 C8.23943787 2.22014618 7.49450073 2.20982361 6.72698975 2.19918823 C1.44181853 2.0919444 1.44181853 2.0919444 -3.0625 4.42578125 C-5.71315481 10.22643168 -5.51535059 16.32009443 -5.68139648 22.57910156 C-5.719066 23.80542927 -5.75673552 25.03175697 -5.79554653 26.29524612 C-6.2124031 41.3791564 -6.19128492 56.46576953 -6.16389394 71.55417538 C-6.15751242 75.68335224 -6.1570452 79.81253039 -6.15586853 83.94171143 C-6.15279779 91.71104914 -6.14464373 99.48037227 -6.13451904 107.24970365 C-6.12109856 117.78363272 -6.11582349 128.31756596 -6.11001682 138.85150146 C-6.1006994 155.37627225 -6.08075269 171.90101231 -6.0625 188.42578125 C20.9975 188.42578125 48.0575 188.42578125 75.9375 188.42578125 C75.9375 188.75578125 75.9375 189.08578125 75.9375 189.42578125 C48.2175 189.42578125 20.4975 189.42578125 -8.0625 189.42578125 C-8.22371214 143.19372289 -8.22371214 143.19372289 -8.2578125 123.859375 C-8.28157141 110.49554321 -8.30954161 97.13181209 -8.36425781 83.76806641 C-8.40408376 74.03645417 -8.42992288 64.3049234 -8.43885398 54.57323194 C-8.44407591 49.41870113 -8.45637771 44.26440342 -8.48542023 39.1099472 C-8.51252228 34.2607041 -8.52095555 29.41179066 -8.51493073 24.56247902 C-8.5160333 22.78065259 -8.52401816 20.99881541 -8.5393219 19.21705437 C-8.55916876 16.78766668 -8.55445928 14.35953025 -8.54351807 11.93011475 C-8.55516943 11.22194068 -8.5668208 10.51376661 -8.57882524 9.78413272 C-8.53736105 6.38756534 -8.2752102 4.69793638 -6.15572739 1.98613358 C-3.83038712 0.25275759 -2.85647952 -0.06039986 0 0 Z " fill="#26092F" transform="translate(11.0625,2.57421875)"/>
<path d="M0 0 C14.19601332 0.41710677 27.98995704 1.68898831 42 4 C42.99966797 4.15903809 43.99933594 4.31807617 45.02929688 4.48193359 C48.08501449 4.97155815 51.13649342 5.48189513 54.1875 6 C55.61437134 6.2307019 55.61437134 6.2307019 57.07006836 6.46606445 C57.94800049 6.62163818 58.82593262 6.77721191 59.73046875 6.9375 C60.50801514 7.07027344 61.28556152 7.20304688 62.08666992 7.33984375 C64 8 64 8 66 11 C66 11.99 66 12.98 66 14 C59.18376935 14.13847873 52.47995591 13.79546795 45.6875 13.21875 C43.1171634 12.97295765 43.1171634 12.97295765 41 13 C41 12.34 41 11.68 41 11 C39.99646484 10.94392578 39.99646484 10.94392578 38.97265625 10.88671875 C31.97038669 10.40736875 25.20564253 9.37750173 18.31884766 8.09326172 C12.23553925 6.98282745 6.17628984 6.34511061 0 6 C0.66 4.35 1.32 2.7 2 1 C1.34 0.67 0.68 0.34 0 0 Z " fill="#94271D" transform="translate(159,231)"/>
<path d="M0 0 C20.04456253 -0.02333444 40.08912232 -0.04098186 60.1336956 -0.05181217 C69.44020923 -0.05697397 78.74671443 -0.06401446 88.05322266 -0.07543945 C96.1623978 -0.08538984 104.27156684 -0.09185428 112.38074791 -0.09408849 C116.67662888 -0.095395 120.97249238 -0.09847705 125.26836777 -0.10573006 C129.30823916 -0.11249585 133.34808582 -0.11461581 137.38796234 -0.11310768 C138.87390146 -0.11338376 140.35984137 -0.11538558 141.8457756 -0.11920547 C143.86819619 -0.12415135 145.89062992 -0.12239552 147.91305542 -0.12025452 C149.04686079 -0.12117631 150.18066616 -0.1220981 151.34882927 -0.12304783 C154 0 154 0 156 1 C156.72693904 2.97888961 157.39816251 4.97954558 158 7 C157.34 7 156.68 7 156 7 C155.31092875 6.26962745 155.31092875 6.26962745 154.60793686 5.52449989 C151.84351557 2.90352636 148.11847077 3.57027295 144.50097656 3.58349609 C143.6299379 3.57491074 142.75889923 3.56632538 141.86146545 3.55747986 C138.9544378 3.53223487 136.04775287 3.5280099 133.140625 3.5234375 C131.08273318 3.50908941 129.02485079 3.49332574 126.96697998 3.47622681 C121.50069131 3.4341854 116.0344605 3.40938269 110.5680542 3.38873291 C102.01053133 3.35331465 93.4531269 3.29120637 84.89573669 3.23261261 C82.76566354 3.21815123 80.63558735 3.20412909 78.50550842 3.19054413 C62.28756519 3.08577386 46.0743179 2.86849045 29.859375 2.5390625 C28.86034401 2.52002239 27.86131302 2.50098228 26.83200836 2.4813652 C24.00735284 2.42657164 21.1828878 2.36594445 18.35839844 2.30322266 C17.53961464 2.28769978 16.72083084 2.2721769 15.87723541 2.25618362 C10.53337307 2.12723194 5.30615106 1.6519671 0 1 C0 0.67 0 0.34 0 0 Z " fill="#D32A31" transform="translate(128,0)"/>
<path d="M0 0 C24.0858683 -0.21265708 48.00169224 -0.35351166 72 2 C72 2.33 72 2.66 72 3 C71.19233688 3.00586624 70.38467377 3.01173248 69.55253601 3.01777649 C61.94501422 3.07565468 54.33782177 3.14770272 46.73059368 3.23571491 C42.81952152 3.28046315 38.90855459 3.31970911 34.99731445 3.34643555 C31.22347912 3.37242461 27.45004781 3.4127949 23.67646217 3.46318626 C22.23600091 3.47988494 20.79546972 3.49138053 19.35492516 3.49761391 C17.33896226 3.50722148 15.32312559 3.53696102 13.30737305 3.56762695 C12.15931686 3.57873001 11.01126068 3.58983307 9.82841492 3.60127258 C7.07559404 3.7876362 7.07559404 3.7876362 5.34814453 5.06578827 C3.31566821 7.98182542 3.57776657 10.91690482 3.60127258 14.34611511 C3.59462576 15.10005202 3.58797893 15.85398893 3.58113068 16.63077241 C3.56243519 19.16438476 3.56511031 21.69752758 3.56762695 24.23120117 C3.55861377 26.04443533 3.54828766 27.85766337 3.53674316 29.67088318 C3.50909483 34.60031634 3.49987804 39.52963414 3.49388909 44.45913482 C3.48452577 49.60816404 3.45832409 54.7571064 3.43388367 59.90608215 C3.39015868 69.65952247 3.36164859 79.412946 3.33856028 89.16645461 C3.31154073 100.2691439 3.26762726 111.37174606 3.22227156 122.47437322 C3.12933937 145.31620162 3.05769793 168.15805735 3 191 C2.67 191 2.34 191 2 191 C2 131.27 2 71.54 2 10 C1.34 10 0.68 10 0 10 C0 6.7 0 3.4 0 0 Z " fill="#68337C" transform="translate(0,0)"/>
<path d="M0 0 C1.89510699 -0.08160748 3.79124504 -0.13946459 5.6875 -0.1875 C6.74324219 -0.22230469 7.79898438 -0.25710937 8.88671875 -0.29296875 C12.35422768 0.03333385 14.18432448 1.00969875 17 3 C16.67 5.31 16.34 7.62 16 10 C18.54995019 11.2749751 20.35783454 11.13910597 23.21377563 11.15821838 C24.31877914 11.1680072 25.42378265 11.17779602 26.56227112 11.18788147 C28.38890541 11.19651466 28.38890541 11.19651466 30.25244141 11.20532227 C32.1694561 11.22017166 32.1694561 11.22017166 34.12519836 11.23532104 C37.63527845 11.26239875 41.14537201 11.28339276 44.65549898 11.30332303 C48.32173919 11.32516494 51.9879377 11.3525624 55.65414429 11.37937927 C62.59912607 11.42933048 69.54413097 11.47426028 76.48915803 11.51740164 C84.39476467 11.56675329 92.30032947 11.62167909 100.20589566 11.67708123 C116.47055856 11.79093854 132.73525978 11.89776939 149 12 C149.33 10.68 149.66 9.36 150 8 C150.99 8 151.98 8 153 8 C152.06899911 10.32750223 151.42392011 11.72075494 149.3031044 13.11778069 C146.38392628 14.2359911 144.02777992 14.2458098 140.90032959 14.24050903 C139.64953613 14.24325836 138.39874268 14.24600769 137.11004639 14.24884033 C135.72668361 14.24176252 134.3433218 14.23449291 132.95996094 14.22705078 C131.50126147 14.22648655 130.04256144 14.22680346 128.5838623 14.22793579 C124.62549798 14.22850985 120.66725475 14.21674694 116.70891857 14.20278788 C112.5715973 14.1902894 108.43427328 14.18911071 104.29693604 14.18673706 C96.46303049 14.1805197 88.62918074 14.16410541 80.79529977 14.14403808 C71.87640026 14.12168706 62.9574981 14.11068766 54.03857756 14.10064721 C35.6923534 14.07973941 17.34618119 14.04455844 -1 14 C1 12 1 12 4.625 11.875 C6.295625 11.936875 6.295625 11.936875 8 12 C8.33 11.34 8.66 10.68 9 10 C10.64363134 9.27840576 12.31050386 8.60648579 14 8 C13.67 6.68 13.34 5.36 13 4 C8.71 3.01 4.42 2.02 0 1 C0 0.67 0 0.34 0 0 Z " fill="#921A5D" transform="translate(135,193)"/>
<path d="M0 0 C22.11 0 44.22 0 67 0 C67 0.33 67 0.66 67 1 C64.36 1.33 61.72 1.66 59 2 C59.62648437 2.12117187 60.25296875 2.24234375 60.8984375 2.3671875 C61.71570313 2.53476563 62.53296875 2.70234375 63.375 2.875 C64.18710938 3.03742188 64.99921875 3.19984375 65.8359375 3.3671875 C68 4 68 4 70 6 C69.9375 8 69.9375 8 69 10 C66.4375 11.25 66.4375 11.25 64 12 C64.495 12.99 64.495 12.99 65 14 C57.41 14 49.82 14 42 14 C42 13.67 42 13.34 42 13 C43.98 13 45.96 13 48 13 C48.185625 11.9790625 48.185625 11.9790625 48.375 10.9375 C49.09100877 7.5722588 50.02945125 4.29986575 51 1 C49.49179688 1.24363281 49.49179688 1.24363281 47.953125 1.4921875 C32.26628686 3.50729517 15.74257767 1.65427315 0 1 C0 0.67 0 0.34 0 0 Z " fill="#8A2069" transform="translate(80,192)"/>
<path d="M0 0 C1.51864877 -0.01161146 3.03725393 -0.03220487 4.55566406 -0.06152344 C6.76704181 -0.10409567 8.97722898 -0.12034104 11.18896484 -0.13061523 C12.49961914 -0.14519775 13.81027344 -0.15978027 15.16064453 -0.17480469 C19.16382888 0.38572265 20.05850133 1.1698825 22.51708984 4.29516602 C23.00928116 6.84885025 23.00928116 6.84885025 22.99810791 9.78741455 C23.00360657 10.90358154 23.00910522 12.01974854 23.01477051 13.16973877 C23.0003894 14.38965515 22.9860083 15.60957153 22.97119141 16.86645508 C22.97177551 18.1545105 22.97235962 19.44256592 22.97296143 20.76965332 C22.97410897 24.29845301 22.95059388 27.82670869 22.9226656 31.35538197 C22.89765831 35.04424595 22.89531049 38.73312244 22.89056396 42.42205811 C22.87813215 49.40607391 22.84530796 56.38983922 22.80516601 63.37374473 C22.76045454 71.32528319 22.73846286 79.27683363 22.71838427 87.22846651 C22.67657535 103.58417964 22.60621953 119.93964086 22.51708984 136.29516602 C22.18708984 136.29516602 21.85708984 136.29516602 21.51708984 136.29516602 C21.50678238 135.12150482 21.49647491 133.94784363 21.4858551 132.73861694 C21.38697114 121.53422107 21.28415761 110.3298668 21.17775059 99.12553978 C21.1231999 93.36894599 21.06990964 87.61234697 21.01977539 81.85571289 C20.88968777 67.00165234 20.73429422 52.14823094 20.51708984 37.29516602 C20.50471031 36.42968643 20.49233078 35.56420685 20.47957611 34.67250061 C20.40348308 29.53798574 20.29722005 24.40521817 20.16943359 19.27172852 C20.14909561 18.06326263 20.12875763 16.85479675 20.10780334 15.60971069 C20.0752092 14.53218536 20.04261505 13.45466003 20.0090332 12.34448242 C19.98642929 11.43034576 19.96382538 10.51620911 19.9405365 9.57437134 C19.43749872 6.86676609 18.71948639 5.91124232 16.51708984 4.29516602 C13.54311369 4.56552748 12.66262958 5.14962628 10.51708984 7.29516602 C10.02208984 5.31516602 10.02208984 5.31516602 9.51708984 3.29516602 C8.21255859 3.30676758 6.90802734 3.31836914 5.56396484 3.33032227 C-3.84516736 3.38793655 -13.12235806 3.36059471 -22.48291016 2.29516602 C-22.48291016 1.96516602 -22.48291016 1.63516602 -22.48291016 1.29516602 C-14.98083032 0.25796642 -7.56658712 0.0403266 0 0 Z " fill="#49010D" transform="translate(262.48291015625,2.704833984375)"/>
<path d="M0 0 C1.98 0 3.96 0 6 0 C6 3.3 6 6.6 6 10 C5.67 10 5.34 10 5 10 C4.67 70.06 4.34 130.12 4 192 C3.67 192 3.34 192 3 192 C3.00092179 191.04601476 3.00184359 190.09202951 3.00279331 189.10913563 C3.02498261 165.90772449 3.0414209 142.70631472 3.05181217 119.50489521 C3.05697074 108.28491654 3.06400511 97.06494488 3.07543945 85.8449707 C3.08539967 76.0668378 3.09185663 66.28870997 3.09408849 56.51057214 C3.09539332 51.33207235 3.09846483 46.15358707 3.10573006 40.97509193 C3.11251133 36.10212484 3.11461264 31.22917826 3.11310768 26.35620689 C3.11338306 24.5667548 3.11537569 22.77730202 3.11920547 20.987854 C3.12417559 18.54606136 3.12298598 16.1043463 3.12025452 13.66255188 C3.12316736 12.9533997 3.1260802 12.24424753 3.12908131 11.51360589 C3.11814172 7.89903243 3.03149289 4.48058973 2 1 C1.34 0.67 0.68 0.34 0 0 Z " fill="#9A2639" transform="translate(282,0)"/>
<path d="M0 0 C24.0858683 -0.21265708 48.00169224 -0.35351166 72 2 C72 2.33 72 2.66 72 3 C70.79183624 3.00879936 70.79183624 3.00879936 69.55926514 3.01777649 C61.96677143 3.07569283 54.37460629 3.14776299 46.78240585 3.23571491 C42.87920956 3.28043273 38.97611798 3.31968549 35.07275391 3.34643555 C31.30539845 3.37245484 27.53844565 3.41284682 23.77133942 3.46318626 C22.33449565 3.47986442 20.89758222 3.49137282 19.46065521 3.49761391 C17.44729072 3.50724372 15.43405298 3.53699877 13.42089844 3.56762695 C12.27506287 3.57873001 11.12922729 3.58983307 9.94866943 3.60127258 C6.73852065 4.03535798 5.35337441 4.83168889 3 7 C3 6.34 3 5.68 3 5 C2.01 5.33 1.02 5.66 0 6 C0 4.02 0 2.04 0 0 Z " fill="#6F236E" transform="translate(0,0)"/>
<path d="M0 0 C33.33 0 66.66 0 101 0 C101 0.33 101 0.66 101 1 C92.2811805 1.88651139 83.6735696 2.12151697 74.9140625 2.0625 C72.92697367 2.0567145 70.93988481 2.05093462 68.95279503 2.04548645 C65.51017629 2.03465966 62.06759227 2.0171153 58.625 2 C54.48758453 1.97954515 50.35018967 1.96035516 46.21273804 1.94897461 C43.64844993 1.94147547 41.08416998 1.92946133 38.51992798 1.91235352 C36.77683853 1.90739868 36.77683853 1.90739868 34.99853516 1.90234375 C33.98215973 1.89710693 32.9657843 1.89187012 31.91860962 1.88647461 C28.8720846 2.00497554 25.99777914 2.46162062 23 3 C22.34 3 21.68 3 21 3 C21 2.34 21 1.68 21 1 C14.07 1 7.14 1 0 1 C0 0.67 0 0.34 0 0 Z " fill="#56042F" transform="translate(27,3)"/>
<path d="M0 0 C0.99 0 1.98 0 3 0 C2.05953366 2.35116584 1.42411614 3.7263651 -0.73248672 5.11778069 C-3.47278925 6.18394768 -5.58979704 6.24605699 -8.5302124 6.24050903 C-9.65479355 6.24325836 -10.77937469 6.24600769 -11.93803406 6.24884033 C-13.16730118 6.24164978 -14.3965683 6.23445923 -15.66308594 6.22705078 C-17.60979942 6.22748886 -17.60979942 6.22748886 -19.59584045 6.22793579 C-23.15133076 6.22850956 -26.7066861 6.2167514 -30.26214504 6.20278788 C-33.97905734 6.19028453 -37.69597275 6.18911033 -41.41290283 6.18673706 C-48.44995216 6.18052113 -55.48693934 6.16410878 -62.52396131 6.14403808 C-70.53598478 6.1216826 -78.54801122 6.11068654 -86.56005812 6.10064721 C-103.04007513 6.07974265 -119.52002963 6.04456448 -136 6 C-136 5.67 -136 5.34 -136 5 C-69.175 4.505 -69.175 4.505 -1 4 C-0.67 2.68 -0.34 1.36 0 0 Z " fill="#7E2057" transform="translate(285,201)"/>
<path d="M0 0 C1.25147324 -0.00630432 2.50294647 -0.01260864 3.79234314 -0.019104 C5.16437927 -0.01552393 6.53641413 -0.0114219 7.90844727 -0.00683594 C9.31087817 -0.0081828 10.71330861 -0.01012351 12.11573792 -0.01263428 C15.05718423 -0.01558552 17.99850918 -0.01128864 20.93994141 -0.00195312 C24.71074069 0.00943103 28.48125495 0.0028887 32.25204372 -0.00909805 C35.14909512 -0.01632568 38.04607897 -0.01402441 40.9431324 -0.00884247 C42.33340552 -0.00750792 43.72368476 -0.00914689 45.11395073 -0.01380157 C47.0577368 -0.01888014 49.00154434 -0.00976717 50.9453125 0 C52.60505348 0.00238678 52.60505348 0.00238678 54.29832458 0.00482178 C57.03735352 0.25878906 57.03735352 0.25878906 60.03735352 2.25878906 C48.94822004 3.17699104 37.97063296 3.35700644 26.84985352 3.25878906 C23.75220116 3.23210981 20.65460873 3.21223452 17.55688477 3.19628906 C16.51006279 3.18384155 16.51006279 3.18384155 15.4420929 3.17114258 C12.15407259 3.15448473 9.18078195 3.23956989 6.03735352 4.25878906 C6.03735352 3.59878906 6.03735352 2.93878906 6.03735352 2.25878906 C1.41735352 2.25878906 -3.20264648 2.25878906 -7.96264648 2.25878906 C-5.2462649 -0.45759252 -3.80038356 0.00546905 0 0 Z " fill="#992363" transform="translate(150.962646484375,2.7412109375)"/>
<path d="M0 0 C0 0.33 0 0.66 0 1 C-0.59167969 1.06058594 -1.18335937 1.12117187 -1.79296875 1.18359375 C-5.91807658 1.62100323 -9.93493743 2.16614101 -14 3 C-15.41634277 3.14894618 -16.83303948 3.29455 -18.25 3.4375 C-19.4875 3.623125 -20.725 3.80875 -22 4 C-22.33 4.66 -22.66 5.32 -23 6 C-17.06 6.33 -11.12 6.66 -5 7 C-5 7.33 -5 7.66 -5 8 C-5.55461914 8.08564209 -6.10923828 8.17128418 -6.68066406 8.25952148 C-9.20407536 8.65027558 -11.72703747 9.04385926 -14.25 9.4375 C-15.12269531 9.57220703 -15.99539062 9.70691406 -16.89453125 9.84570312 C-17.73886719 9.97783203 -18.58320312 10.10996094 -19.453125 10.24609375 C-20.61569824 10.42676392 -20.61569824 10.42676392 -21.80175781 10.61108398 C-24.00704637 10.95035361 -24.00704637 10.95035361 -26.09667969 11.67211914 C-28 12 -28 12 -31 10 C-30.9375 7.75 -30.9375 7.75 -30 5 C-21.54776616 -1.6147917 -10.20688198 -0.16031752 0 0 Z " fill="#661D54" transform="translate(88,235)"/>
<path d="M0 0 C2.5 1.5 2.5 1.5 4 3 C3.8125 4.875 3.8125 4.875 3 7 C-1.03092196 9.73062455 -5.18376355 8.95427898 -9.79296875 8.484375 C-12 8 -12 8 -14 6 C-13.9375 4 -13.9375 4 -13 2 C-8.80985155 -0.53948391 -4.7447347 -0.37656625 0 0 Z " fill="#FBB8C1" transform="translate(146,195)"/>
<path d="M0 0 C0 0.33 0 0.66 0 1 C-7.65606218 1.19355213 -14.66258031 1.3479743 -22 -1 C-22 -0.34 -22 0.32 -22 1 C-30.58 0.34 -39.16 -0.32 -48 -1 C-48 -1.33 -48 -1.66 -48 -2 C-31.7323983 -4.27930238 -16.12546811 -2.69560064 0 0 Z " fill="#631A14" transform="translate(206,232)"/>
<path d="M0 0 C4.41080354 -0.02490464 8.82156871 -0.04295604 13.23242188 -0.05493164 C14.72982497 -0.05992943 16.22722327 -0.0667299 17.72460938 -0.07543945 C19.88933505 -0.08770623 22.05399565 -0.09327397 24.21875 -0.09765625 C26.1668457 -0.10551147 26.1668457 -0.10551147 28.15429688 -0.11352539 C32.18513861 0.0054653 36.00442376 0.46873784 40 1 C41.86298815 1.13065152 43.72780521 1.23865855 45.59375 1.31640625 C46.56054688 1.35830078 47.52734375 1.40019531 48.5234375 1.44335938 C49.50570312 1.48267578 50.48796875 1.52199219 51.5 1.5625 C52.51320312 1.60568359 53.52640625 1.64886719 54.5703125 1.69335938 C57.0467679 1.79849192 59.52330749 1.90063837 62 2 C62 2.33 62 2.66 62 3 C41.21291039 3.24647224 20.72100816 2.87331067 0 1 C0 0.67 0 0.34 0 0 Z " fill="#92175A" transform="translate(44,0)"/>
<path d="M0 0 C7.92 0.66 15.84 1.32 24 2 C24 2.66 24 3.32 24 4 C29.445 4.495 29.445 4.495 35 5 C35 5.66 35 6.32 35 7 C35.99 7.33 36.98 7.66 38 8 C29.95355769 7.16090887 21.94928704 6.05512712 13.9375 4.9375 C12.58139564 4.74923775 11.22527596 4.56108588 9.86914062 4.37304688 C6.57927519 3.91644633 3.28956834 3.45873523 0 3 C0 2.01 0 1.02 0 0 Z " fill="#771F13" transform="translate(184,231)"/>
<path d="M0 0 C0 0.33 0 0.66 0 1 C-3.37498158 1.02922646 -6.74993021 1.04687468 -10.125 1.0625 C-11.55199219 1.07506836 -11.55199219 1.07506836 -13.0078125 1.08789062 C-17.82305116 1.1046102 -22.25145782 0.84088768 -27 0 C-30.62172805 -0.26328553 -34.24702864 -0.41256351 -37.875 -0.5625 C-38.84953125 -0.60568359 -39.8240625 -0.64886719 -40.828125 -0.69335938 C-43.21862802 -0.79882274 -45.60922444 -0.90094175 -48 -1 C-48 -1.33 -48 -1.66 -48 -2 C-31.77455134 -3.51530771 -16.10596721 -2.05311216 0 0 Z " fill="#82181E" transform="translate(176,238)"/>
<path d="M0 0 C12.54 0 25.08 0 38 0 C38 1.32 38 2.64 38 4 C37.01 4 36.02 4 35 4 C34.34 4.66 33.68 5.32 33 6 C32.505 4.02 32.505 4.02 32 2 C30.69546875 2.01160156 29.3909375 2.02320313 28.046875 2.03515625 C18.63774279 2.09277053 9.3605521 2.06542869 0 1 C0 0.67 0 0.34 0 0 Z " fill="#3C0B20" transform="translate(240,4)"/>
<path d="M0 0 C-2 3 -2 3 -4.375 3.6875 C-9.5855905 4.13668884 -14.77371667 4.07611092 -20 4 C-13.93775593 0.67554357 -6.86061613 -0.36108506 0 0 Z " fill="#5D1631" transform="translate(96,231)"/>
<path d="M0 0 C2.29160319 -0.02692484 4.58329546 -0.04636124 6.875 -0.0625 C8.15117187 -0.07410156 9.42734375 -0.08570313 10.7421875 -0.09765625 C14 0 14 0 16 1 C16.72693904 2.97888961 17.39816251 4.97954558 18 7 C17.34 7 16.68 7 16 7 C15.43796875 6.35546875 14.8759375 5.7109375 14.296875 5.046875 C11.26167275 2.3420349 9.26201105 2.41048044 5.25 2.25 C3.49429687 2.16492188 3.49429687 2.16492188 1.703125 2.078125 C0.81109375 2.05234375 -0.0809375 2.0265625 -1 2 C-0.67 1.34 -0.34 0.68 0 0 Z " fill="#CF2927" transform="translate(268,0)"/>
<path d="M0 0 C0.33 0.66 0.66 1.32 1 2 C0.67 2.66 0.34 3.32 0 4 C1.82724609 3.7834375 1.82724609 3.7834375 3.69140625 3.5625 C5.31508014 3.37479204 6.93877943 3.1873037 8.5625 3 C9.36236328 2.90460938 10.16222656 2.80921875 10.98632812 2.7109375 C15.69452167 2.17285824 20.26147265 1.89823297 25 2 C25 2.33 25 2.66 25 3 C24.44538086 3.08564209 23.89076172 3.17128418 23.31933594 3.25952148 C20.79592464 3.65027558 18.27296253 4.04385926 15.75 4.4375 C14.87730469 4.57220703 14.00460938 4.70691406 13.10546875 4.84570312 C11.83896484 5.04389648 11.83896484 5.04389648 10.546875 5.24609375 C9.77182617 5.36654053 8.99677734 5.4869873 8.19824219 5.61108398 C5.99295363 5.95035361 5.99295363 5.95035361 3.90332031 6.67211914 C2 7 2 7 -1 5 C-0.67 3.35 -0.34 1.7 0 0 Z " fill="#601641" transform="translate(58,240)"/>
<path d="M0 0 C0.66 0.66 1.32 1.32 2 2 C-1.96 2 -5.92 2 -10 2 C-10 3.98 -10 5.96 -10 8 C-11.32 7.34 -12.64 6.68 -14 6 C-13.8125 4.125 -13.8125 4.125 -13 2 C-8.82331217 -0.53132596 -4.72994174 -0.31016011 0 0 Z " fill="#F29FC2" transform="translate(146,195)"/>
<path d="M0 0 C1.8871875 0.061875 1.8871875 0.061875 3.8125 0.125 C1.75747125 4.2350575 -4.05926276 5.54655635 -8.1875 7.125 C-7.875 4.75 -7.875 4.75 -7.1875 2.125 C-4.09861478 0.06574319 -3.47814073 -0.1140374 0 0 Z " fill="#4E1535" transform="translate(61.1875,235.875)"/>
<path d="M0 0 C0 0.33 0 0.66 0 1 C-0.59167969 1.06058594 -1.18335937 1.12117187 -1.79296875 1.18359375 C-6.78987107 1.71344473 -11.61938726 2.40484681 -16.5 3.625 C-19.27177336 4.040766 -21.30236005 3.69367884 -24 3 C-23.67 2.34 -23.34 1.68 -23 1 C-15.51861202 -0.48785577 -7.59153502 -0.11923877 0 0 Z " fill="#661742" transform="translate(88,235)"/>
<path d="M0 0 C1.98 0 3.96 0 6 0 C6 3.3 6 6.6 6 10 C3.1928456 6.25712746 2.79855308 5.22092343 2 1 C1.34 0.67 0.68 0.34 0 0 Z " fill="#31070D" transform="translate(282,0)"/>
<path d="M0 0 C6.86515862 -0.26404456 13.25846717 0.74158054 20 2 C20 2.33 20 2.66 20 3 C17.36 3.33 14.72 3.66 12 4 C12 3.34 12 2.68 12 2 C8.04 1.67 4.08 1.34 0 1 C0 0.67 0 0.34 0 0 Z " fill="#852316" transform="translate(188,240)"/>
<path d="M0 0 C1.65 0 3.3 0 5 0 C5.33 0.99 5.66 1.98 6 3 C1.05 3 -3.9 3 -9 3 C-7 1 -7 1 -3.375 0.875 C-1.704375 0.936875 -1.704375 0.936875 0 1 C0 0.67 0 0.34 0 0 Z " fill="#8C1D5A" transform="translate(143,204)"/>
<path d="M0 0 C1.65 0 3.3 0 5 0 C5.33 1.32 5.66 2.64 6 4 C4.68 4.33 3.36 4.66 2 5 C1.34 3.35 0.68 1.7 0 0 Z " fill="#F9C0C8" transform="translate(144,197)"/>
<path d="M0 0 C1.98 0.99 1.98 0.99 4 2 C4 5.3 4 8.6 4 12 C2.01226251 9.01839377 1.58688856 7.43749015 1 4 C0.67516582 2.66457061 0.3449145 1.33038449 0 0 Z " fill="#25091C" transform="translate(280,5)"/>
<path d="M0 0 C1.4540625 0.0309375 1.4540625 0.0309375 2.9375 0.0625 C2.6075 1.0525 2.2775 2.0425 1.9375 3.0625 C0.9475 3.0625 -0.0425 3.0625 -1.0625 3.0625 C-1.7225 3.7225 -2.3825 4.3825 -3.0625 5.0625 C-3.625 3.125 -3.625 3.125 -4.0625 1.0625 C-3.0625 0.0625 -3.0625 0.0625 0 0 Z " fill="#1E0E1F" transform="translate(276.0625,4.9375)"/>
</svg>
